<svg width="282" height="78" viewBox="0 0 282 78" fill="none" xmlns="http://www.w3.org/2000/svg">
<path d="M79.9012 49.9086H74.1758V26.4407H89.1303V31.4357H79.9012V35.914H87.2076V40.8229H79.9012V49.9086Z" fill="#3F2355"/>
<path d="M91.3949 28.7654C91.3949 27.9042 91.7367 27.1722 92.3776 26.5693C93.0185 25.9665 93.7876 25.665 94.6422 25.665C95.5395 25.665 96.3085 25.9665 96.9067 26.5693C97.5049 27.1722 97.8467 27.9042 97.8467 28.7654C97.8467 29.6266 97.5476 30.3586 96.9067 30.9615C96.3085 31.5643 95.5395 31.8657 94.6422 31.8657C93.7449 31.8657 93.0185 31.5643 92.3776 30.9615C91.7367 30.3586 91.3949 29.6266 91.3949 28.7654ZM91.9931 34.0618V49.9081H97.3767V34.0618H91.9931Z" fill="#3F2355"/>
<path d="M106.778 41.5539V49.9076H101.395V34.0614H106.778V36.5589C107.035 35.6546 107.633 34.9226 108.53 34.4489C109.47 33.9322 110.367 33.6738 111.179 33.6738C113.23 33.6738 114.811 34.3628 115.879 35.6977C116.947 37.0325 117.46 38.9703 117.46 41.5108V49.9507H112.076V41.64C112.076 40.6927 111.82 40.0037 111.307 39.53C110.795 39.0994 110.196 38.8841 109.513 38.8841C108.786 38.8841 108.145 39.0994 107.59 39.53C107.035 39.9607 106.778 40.6496 106.778 41.5539Z" fill="#3F2355"/>
<path d="M132.584 35.7408V34.0184H137.968V49.8646H132.584V48.0561C131.601 49.4771 130.148 50.1661 128.226 50.1661C126.175 50.1661 124.38 49.391 122.842 47.8839C121.304 46.3767 120.535 44.3529 120.535 41.8985C120.535 39.444 121.304 37.4202 122.842 35.9131C124.38 34.3629 126.175 33.6309 128.226 33.6309C129.038 33.6309 129.892 33.8031 130.661 34.1906C131.473 34.5351 132.114 35.0519 132.584 35.7408ZM126.987 39.6593C126.346 40.3052 126.004 41.0803 126.004 41.9846C126.004 42.8889 126.346 43.6639 126.987 44.3098C127.628 44.9558 128.397 45.3002 129.294 45.3002C130.191 45.3002 130.96 44.9558 131.601 44.3098C132.242 43.6639 132.584 42.8889 132.584 41.9846C132.584 41.0803 132.242 40.3052 131.601 39.6593C130.96 39.0134 130.191 38.6689 129.294 38.6689C128.397 38.6689 127.628 39.0134 126.987 39.6593Z" fill="#3F2355"/>
<path d="M147.368 41.5539V49.9076H141.984V34.0614H147.368V36.5589C147.624 35.6546 148.222 34.9226 149.119 34.4489C150.017 33.9753 150.957 33.6738 151.768 33.6738C153.819 33.6738 155.4 34.3628 156.468 35.6977C157.537 37.0325 158.049 38.9703 158.049 41.5108V49.9507H152.666V41.64C152.666 40.6927 152.409 40.0037 151.897 39.53C151.384 39.0994 150.786 38.8841 150.102 38.8841C149.376 38.8841 148.735 39.0994 148.179 39.53C147.624 39.9607 147.368 40.6496 147.368 41.5539Z" fill="#3F2355"/>
<path d="M172.363 43.7931L176.849 46.2906C175.098 48.9173 172.79 50.2091 169.885 50.2091C167.449 50.2091 165.399 49.434 163.689 47.9269C161.98 46.3767 161.126 44.396 161.126 41.9415C161.126 39.4871 161.98 37.5063 163.689 35.9561C165.399 34.4059 167.449 33.6309 169.885 33.6309C172.748 33.6309 175.055 34.9227 176.807 37.5494L172.406 40.2191C171.765 39.1857 170.868 38.6689 169.629 38.6689C168.731 38.6689 167.962 39.0134 167.321 39.6593C166.68 40.3052 166.339 41.0803 166.339 41.9846C166.339 42.8889 166.68 43.6639 167.321 44.3098C167.962 44.9558 168.731 45.3002 169.629 45.3002C170.782 45.2141 171.679 44.7404 172.363 43.7931Z" fill="#3F2355"/>
<path d="M195.222 41.7262C195.222 41.9846 195.179 42.5874 195.137 43.4486H183.857C183.942 44.1807 184.327 44.7404 185.053 45.2141C185.779 45.6447 186.549 45.86 187.446 45.86C188.685 45.86 189.71 45.4294 190.437 44.5251C190.693 44.7404 191.334 45.2141 192.359 45.9031C193.385 46.6351 193.983 47.0657 194.154 47.1949C192.659 49.1757 190.309 50.1661 187.019 50.1661C184.711 50.1661 182.746 49.391 181.079 47.8408C179.456 46.2906 178.644 44.2668 178.644 41.8554C178.644 39.444 179.456 37.4632 181.079 35.9131C182.703 34.3629 184.669 33.6309 187.019 33.6309C189.326 33.6309 191.291 34.3629 192.829 35.87C194.41 37.3341 195.222 39.3148 195.222 41.7262ZM183.814 40.4344H190.095C189.881 39.5301 189.454 38.9273 188.813 38.5828C188.172 38.2383 187.574 38.0661 186.976 38.0661C186.634 38.0661 186.249 38.1091 185.865 38.1953C185.48 38.2814 185.096 38.5397 184.669 38.9273C184.241 39.3148 183.942 39.8316 183.814 40.4344Z" fill="#3F2355"/>
<path d="M196.887 26.4414H214.149V29.4556H207.099V49.9093H203.937V29.4556H196.887V26.4414Z" fill="#FE5600"/>
<path d="M220.772 41.3387V49.9077H217.695V25.3633H220.772V36.3868C221.199 35.4825 221.925 34.8366 222.951 34.3629C223.976 33.8892 225.002 33.6739 225.984 33.6739C227.95 33.6739 229.531 34.2768 230.684 35.5255C231.838 36.7743 232.394 38.4967 232.394 40.6928V49.8647H229.317V40.9081C229.317 39.6163 228.975 38.5828 228.292 37.8508C227.608 37.0757 226.711 36.7312 225.6 36.7312C224.318 36.7312 223.207 37.1188 222.267 37.8508C221.284 38.5828 220.772 39.7455 220.772 41.3387Z" fill="#FE5600"/>
<path d="M249.869 49.9076V47.4532C249.356 48.3574 248.587 49.0034 247.561 49.5201C246.536 50.0368 245.468 50.2521 244.314 50.2521C242.092 50.2521 240.212 49.477 238.631 47.9268C237.093 46.3767 236.281 44.3959 236.281 41.9414C236.281 39.487 237.05 37.4632 238.631 35.956C240.169 34.4489 242.092 33.6738 244.314 33.6738C245.468 33.6738 246.536 33.9322 247.561 34.4059C248.587 34.8795 249.356 35.5685 249.826 36.4297V34.0183H252.859V49.9076H249.869ZM249.826 41.8984C249.826 40.3051 249.313 39.0133 248.245 38.1091C247.177 37.1617 245.98 36.7311 244.613 36.7311C243.16 36.7311 241.921 37.2048 240.939 38.1952C239.956 39.1425 239.486 40.3913 239.486 41.9414C239.486 43.4916 239.999 44.7404 240.981 45.7308C241.964 46.7212 243.203 47.2379 244.613 47.2379C246.066 47.2379 247.305 46.7642 248.33 45.8169C249.313 44.8265 249.826 43.5347 249.826 41.8984Z" fill="#FE5600"/>
<path d="M262.135 34.0186H265.467V36.6453H262.135V49.9079H259.058V36.6453H256.238V34.0186H259.058V28.0332H262.135V34.0186Z" fill="#FE5600"/>
<path d="M35.9337 72.729C53.9623 72.729 68.5773 58 68.5773 39.8308C68.5773 21.6616 53.9623 6.93262 35.9337 6.93262C17.9051 6.93262 3.29004 21.6616 3.29004 39.8308C3.29004 58 17.9051 72.729 35.9337 72.729Z" fill="url(#paint0_linear_303_521)"/>
<path d="M19.6562 41.0802L52.2144 24.502L44.0962 52.2329L19.6562 41.0802L52.2144 24.502L19.6562 41.0802Z" fill="white"/>
<path d="M32.6041 46.9355L34.9541 48.0551L31.6641 52.8348L32.6041 46.9355Z" fill="#A97C57"/>
<path d="M28.5863 45.1282L52.0008 24.7175L32.6027 46.9367L31.6627 52.836L28.5863 45.1282Z" fill="#E9DDD4"/>
<defs>
<linearGradient id="paint0_linear_303_521" x1="14.7225" y1="58.9195" x2="63.7421" y2="15.4683" gradientUnits="userSpaceOnUse">
<stop stop-color="#E32738"/>
<stop offset="0.0549275" stop-color="#E72D30"/>
<stop offset="0.23" stop-color="#F03E1B"/>
<stop offset="0.425" stop-color="#F6490C"/>
<stop offset="0.654" stop-color="#FA5003"/>
<stop offset="1" stop-color="#FB5200"/>
</linearGradient>
</defs>
</svg>
